<svg viewBox="0 0 13 13" fill="none" xmlns="http://www.w3.org/2000/svg">
<path d="M6.5 0C5.21442 0 3.95772 0.381218 2.8888 1.09545C1.81988 1.80968 0.986756 2.82484 0.494786 4.01256C0.00281635 5.20028 -0.125905 6.50721 0.124899 7.76809C0.375703 9.02896 0.994767 10.1872 1.90381 11.0962C2.81285 12.0052 3.97104 12.6243 5.23192 12.8751C6.49279 13.1259 7.79973 12.9972 8.98744 12.5052C10.1752 12.0132 11.1903 11.1801 11.9046 10.1112C12.6188 9.04229 13 7.78558 13 6.5C12.9982 4.77665 12.3128 3.12441 11.0942 1.90582C9.87559 0.687224 8.22335 0.00181989 6.5 0ZM7 11.9769V8H8.5C8.63261 8 8.75979 7.94732 8.85356 7.85355C8.94732 7.75979 9 7.63261 9 7.5C9 7.36739 8.94732 7.24021 8.85356 7.14645C8.75979 7.05268 8.63261 7 8.5 7H7V5.5C7 5.23478 7.10536 4.98043 7.2929 4.79289C7.48043 4.60536 7.73479 4.5 8 4.5H9C9.13261 4.5 9.25979 4.44732 9.35356 4.35355C9.44732 4.25979 9.5 4.13261 9.5 4C9.5 3.86739 9.44732 3.74021 9.35356 3.64645C9.25979 3.55268 9.13261 3.5 9 3.5H8C7.46957 3.5 6.96086 3.71071 6.58579 4.08579C6.21072 4.46086 6 4.96957 6 5.5V7H4.5C4.36739 7 4.24022 7.05268 4.14645 7.14645C4.05268 7.24021 4 7.36739 4 7.5C4 7.63261 4.05268 7.75979 4.14645 7.85355C4.24022 7.94732 4.36739 8 4.5 8H6V11.9769C4.5905 11.8482 3.28485 11.1811 2.35465 10.1144C1.42445 9.04759 0.941298 7.66329 1.0057 6.24939C1.0701 4.83549 1.6771 3.50085 2.70043 2.52307C3.72376 1.54529 5.08464 0.99965 6.5 0.99965C7.91537 0.99965 9.27625 1.54529 10.2996 2.52307C11.3229 3.50085 11.9299 4.83549 11.9943 6.24939C12.0587 7.66329 11.5756 9.04759 10.6454 10.1144C9.71515 11.1811 8.40951 11.8482 7 11.9769Z" fill="#EFEAE7"/>
</svg>
