<svg width="13" height="13" viewBox="0 0 13 13" fill="none" xmlns="http://www.w3.org/2000/svg">
<path d="M6.5 3.5C5.90666 3.5 5.32664 3.67595 4.83329 4.00559C4.33994 4.33524 3.95542 4.80377 3.72836 5.35195C3.5013 5.90013 3.44189 6.50333 3.55764 7.08527C3.6734 7.66721 3.95912 8.20176 4.37868 8.62132C4.79824 9.04088 5.33279 9.3266 5.91473 9.44236C6.49667 9.55811 7.09987 9.4987 7.64805 9.27164C8.19623 9.04458 8.66476 8.66006 8.99441 8.16671C9.32405 7.67336 9.5 7.09334 9.5 6.5C9.49917 5.7046 9.18284 4.94202 8.62041 4.37959C8.05798 3.81716 7.2954 3.50083 6.5 3.5ZM6.5 8.5C6.10444 8.5 5.71776 8.3827 5.38886 8.16294C5.05996 7.94318 4.80362 7.63082 4.65224 7.26537C4.50087 6.89991 4.46126 6.49778 4.53843 6.10982C4.6156 5.72186 4.80608 5.36549 5.08579 5.08579C5.36549 4.80608 5.72186 4.6156 6.10982 4.53843C6.49778 4.46126 6.89991 4.50087 7.26537 4.65224C7.63082 4.80362 7.94318 5.05996 8.16294 5.38886C8.3827 5.71776 8.5 6.10444 8.5 6.5C8.5 7.03043 8.28929 7.53914 7.91421 7.91421C7.53914 8.28929 7.03043 8.5 6.5 8.5ZM9.5 0H3.5C2.57205 0.000992641 1.68238 0.37006 1.02622 1.02622C0.37006 1.68238 0.000992641 2.57205 0 3.5V9.5C0.000992641 10.428 0.37006 11.3176 1.02622 11.9738C1.68238 12.6299 2.57205 12.999 3.5 13H9.5C10.428 12.999 11.3176 12.6299 11.9738 11.9738C12.6299 11.3176 12.999 10.428 13 9.5V3.5C12.999 2.57205 12.6299 1.68238 11.9738 1.02622C11.3176 0.37006 10.428 0.000992641 9.5 0ZM12 9.5C12 10.163 11.7366 10.7989 11.2678 11.2678C10.7989 11.7366 10.163 12 9.5 12H3.5C2.83696 12 2.20107 11.7366 1.73223 11.2678C1.26339 10.7989 1 10.163 1 9.5V3.5C1 2.83696 1.26339 2.20107 1.73223 1.73223C2.20107 1.26339 2.83696 1 3.5 1H9.5C10.163 1 10.7989 1.26339 11.2678 1.73223C11.7366 2.20107 12 2.83696 12 3.5V9.5ZM10.5 3.25C10.5 3.39834 10.456 3.54334 10.3736 3.66668C10.2912 3.79001 10.1741 3.88614 10.037 3.94291C9.89997 3.99968 9.74917 4.01453 9.60368 3.98559C9.4582 3.95665 9.32456 3.88522 9.21967 3.78033C9.11478 3.67544 9.04335 3.5418 9.01441 3.39632C8.98547 3.25083 9.00033 3.10003 9.05709 2.96299C9.11386 2.82594 9.20999 2.70881 9.33332 2.6264C9.45666 2.54399 9.60166 2.5 9.75 2.5C9.94891 2.5 10.1397 2.57902 10.2803 2.71967C10.421 2.86032 10.5 3.05109 10.5 3.25Z" fill="#EFEAE7"/>
</svg>
