<svg width="14" height="13" viewBox="0 0 14 13" fill="none" xmlns="http://www.w3.org/2000/svg">
<path d="M12.5 0H1.5C1.23478 0 0.98043 0.105357 0.792893 0.292893C0.605357 0.48043 0.5 0.734784 0.5 1V12C0.5 12.2652 0.605357 12.5196 0.792893 12.7071C0.98043 12.8946 1.23478 13 1.5 13H12.5C12.7652 13 13.0196 12.8946 13.2071 12.7071C13.3946 12.5196 13.5 12.2652 13.5 12V1C13.5 0.734784 13.3946 0.48043 13.2071 0.292893C13.0196 0.105357 12.7652 0 12.5 0ZM12.5 12H1.5V1H12.5V12ZM5 5.5V9.5C5 9.63261 4.94732 9.75979 4.85355 9.85355C4.75979 9.94732 4.63261 10 4.5 10C4.36739 10 4.24021 9.94732 4.14645 9.85355C4.05268 9.75979 4 9.63261 4 9.5V5.5C4 5.36739 4.05268 5.24021 4.14645 5.14645C4.24021 5.05268 4.36739 5 4.5 5C4.63261 5 4.75979 5.05268 4.85355 5.14645C4.94732 5.24021 5 5.36739 5 5.5ZM10.5 7.25V9.5C10.5 9.63261 10.4473 9.75979 10.3536 9.85355C10.2598 9.94732 10.1326 10 10 10C9.86739 10 9.74021 9.94732 9.64645 9.85355C9.55268 9.75979 9.5 9.63261 9.5 9.5V7.25C9.5 6.91848 9.3683 6.60054 9.13388 6.36612C8.89946 6.1317 8.58152 6 8.25 6C7.91848 6 7.60054 6.1317 7.36612 6.36612C7.1317 6.60054 7 6.91848 7 7.25V9.5C7 9.63261 6.94732 9.75979 6.85355 9.85355C6.75979 9.94732 6.63261 10 6.5 10C6.36739 10 6.24021 9.94732 6.14645 9.85355C6.05268 9.75979 6 9.63261 6 9.5V5.5C6.00062 5.37753 6.04617 5.25954 6.12801 5.16843C6.20985 5.07731 6.32228 5.0194 6.44398 5.00568C6.56569 4.99196 6.68819 5.02339 6.78826 5.094C6.88833 5.16461 6.959 5.26949 6.98688 5.38875C7.32512 5.1593 7.71947 5.02631 8.12759 5.00407C8.53571 4.98184 8.94218 5.07119 9.30335 5.26254C9.66452 5.45388 9.96674 5.74 10.1776 6.09015C10.3884 6.44031 10.4999 6.84127 10.5 7.25ZM5.25 3.75C5.25 3.89834 5.20601 4.04334 5.1236 4.16668C5.04119 4.29001 4.92406 4.38614 4.78701 4.44291C4.64997 4.49968 4.49917 4.51453 4.35368 4.48559C4.2082 4.45665 4.07456 4.38522 3.96967 4.28033C3.86478 4.17544 3.79335 4.0418 3.76441 3.89632C3.73547 3.75083 3.75032 3.60003 3.80709 3.46299C3.86386 3.32594 3.95999 3.20881 4.08332 3.1264C4.20666 3.04399 4.35166 3 4.5 3C4.69891 3 4.88968 3.07902 5.03033 3.21967C5.17098 3.36032 5.25 3.55109 5.25 3.75Z" fill="#EFEAE7"/>
</svg>
