<svg width="14" height="12" viewBox="0 0 14 12" fill="none" xmlns="http://www.w3.org/2000/svg">
<path d="M13.9619 1.80876C13.924 1.71739 13.86 1.63929 13.7778 1.58433C13.6956 1.52937 13.5989 1.50003 13.5 1.50001H11.5981C11.3322 1.04762 10.9538 0.671731 10.4996 0.408886C10.0454 0.146041 9.53097 0.00518363 9.00625 8.05294e-06C8.61532 -0.00511958 8.22732 0.0679916 7.86506 0.21504C7.50281 0.362088 7.17362 0.580103 6.89687 0.856258C6.61204 1.13577 6.38597 1.46941 6.23195 1.83756C6.07793 2.20571 5.99907 2.60094 6 3.00001V3.38063C3.48375 2.71688 1.42562 0.670008 1.40375 0.648133C1.33667 0.580459 1.25165 0.533361 1.1587 0.512387C1.06575 0.491414 0.96874 0.497436 0.879099 0.529747C0.789457 0.562057 0.710914 0.61931 0.65272 0.694762C0.594526 0.770214 0.559104 0.860724 0.550625 0.955633C0.28125 3.94251 1.14875 5.94126 1.92562 7.09188C2.30442 7.66069 2.76524 8.17037 3.29312 8.60438C2.34125 9.70001 0.8425 10.2756 0.82625 10.2819C0.755696 10.3083 0.692026 10.3503 0.639997 10.4048C0.587968 10.4593 0.548926 10.5249 0.525788 10.5966C0.502649 10.6683 0.496013 10.7443 0.506374 10.8189C0.516736 10.8935 0.543827 10.9648 0.585625 11.0275C0.6325 11.0975 0.82 11.3431 1.27812 11.5725C1.84437 11.8563 2.5925 12 3.5 12C7.91687 12 11.6075 8.59876 11.9844 4.22251L13.8538 2.35376C13.9237 2.28379 13.9712 2.19467 13.9905 2.09766C14.0097 2.00065 13.9998 1.90011 13.9619 1.80876ZM11.1494 3.64688C11.0637 3.73282 11.0121 3.847 11.0044 3.96813C10.75 7.91126 7.455 11 3.5 11C2.84 11 2.375 10.9125 2.04875 10.8075C2.76812 10.4169 3.77125 9.74501 4.41625 8.77751C4.45411 8.72062 4.4799 8.65657 4.49204 8.58932C4.50417 8.52208 4.5024 8.45305 4.48682 8.38652C4.47124 8.31998 4.44219 8.25735 4.40146 8.20248C4.36072 8.14761 4.30918 8.10168 4.25 8.06751C4.22062 8.05063 1.50562 6.42126 1.5 2.06751C2.5 2.88001 4.32812 4.14063 6.41687 4.49188C6.48846 4.50395 6.56182 4.50029 6.63184 4.48115C6.70187 4.462 6.76689 4.42784 6.82238 4.38103C6.87788 4.33422 6.92251 4.27589 6.95318 4.21009C6.98385 4.14429 6.99983 4.0726 7 4.00001V3.00001C6.99944 2.73329 7.05223 2.46915 7.15527 2.22314C7.25831 1.97713 7.40952 1.75421 7.6 1.56751C7.7826 1.38457 8.00002 1.24009 8.23941 1.14262C8.4788 1.04515 8.7353 0.996653 8.99375 1.00001C9.785 1.01001 10.5244 1.49251 10.8337 2.20063C10.8727 2.28966 10.9369 2.36539 11.0182 2.41856C11.0996 2.47173 11.1947 2.50004 11.2919 2.50001H12.2919L11.1494 3.64688Z" fill="#EFEAE7"/>
</svg>
