<svg width="14" height="13" viewBox="0 0 14 13" fill="none" xmlns="http://www.w3.org/2000/svg">
<path d="M10.7237 7.5525L8.7237 6.5525C8.64498 6.51327 8.5573 6.4955 8.46951 6.50099C8.38172 6.50647 8.29693 6.53502 8.2237 6.58375L7.30558 7.19625C6.88411 6.96456 6.53727 6.61772 6.30558 6.19625L6.91808 5.27812C6.96681 5.2049 6.99535 5.12011 7.00084 5.03232C7.00633 4.94453 6.98856 4.85685 6.94933 4.77812L5.94933 2.77813C5.90788 2.69442 5.84381 2.624 5.76439 2.57484C5.68496 2.52568 5.59336 2.49976 5.49995 2.5C4.83691 2.5 4.20103 2.76339 3.73219 3.23223C3.26335 3.70107 2.99995 4.33696 2.99995 5C3.00161 6.45818 3.5816 7.85617 4.61269 8.88726C5.64378 9.91835 7.04177 10.4983 8.49995 10.5C8.82826 10.5 9.15335 10.4353 9.45666 10.3097C9.75998 10.1841 10.0356 9.99991 10.2677 9.76777C10.4999 9.53562 10.684 9.26002 10.8097 8.95671C10.9353 8.65339 11 8.3283 11 8C11 7.90711 10.9742 7.81604 10.9254 7.737C10.8766 7.65795 10.8068 7.59407 10.7237 7.5525ZM8.49995 9.5C7.30689 9.49868 6.16306 9.02415 5.31944 8.18052C4.47581 7.33689 4.00128 6.19307 3.99995 5C3.99986 4.6532 4.11993 4.31708 4.33974 4.04884C4.55955 3.7806 4.86552 3.59681 5.20558 3.52875L5.92308 4.96625L5.31245 5.875C5.26682 5.94345 5.23879 6.02209 5.23083 6.10397C5.22287 6.18585 5.23523 6.26842 5.26683 6.34438C5.62457 7.19461 6.30096 7.87101 7.1512 8.22875C7.22739 8.26175 7.31059 8.27525 7.3933 8.26805C7.47601 8.26085 7.55562 8.23317 7.62495 8.1875L8.53808 7.57875L9.97558 8.29625C9.90699 8.6367 9.7224 8.9428 9.45329 9.16233C9.18418 9.38185 8.84724 9.5012 8.49995 9.5ZM6.99995 1.54797e-07C5.87775 -0.000244726 4.77459 0.290055 3.79786 0.842643C2.82113 1.39523 2.00411 2.19128 1.42631 3.15331C0.848514 4.11534 0.52963 5.21058 0.500696 6.33241C0.471763 7.45425 0.733766 8.56446 1.2612 9.555L0.551829 11.6831C0.493069 11.8593 0.484542 12.0484 0.527203 12.2292C0.569863 12.4099 0.662026 12.5753 0.793361 12.7066C0.924696 12.8379 1.09001 12.9301 1.27078 12.9728C1.45155 13.0154 1.64063 13.0069 1.81683 12.9481L3.94495 12.2388C4.81668 12.7024 5.78259 12.9614 6.76935 12.996C7.75611 13.0306 8.73779 12.84 9.63987 12.4386C10.542 12.0372 11.3407 11.4355 11.9756 10.6793C12.6104 9.92309 13.0647 9.03218 13.3038 8.07421C13.5429 7.11624 13.5607 6.11638 13.3557 5.15052C13.1507 4.18467 12.7283 3.27821 12.1207 2.49995C11.5131 1.72169 10.7362 1.09208 9.8489 0.658909C8.96162 0.225743 7.98732 0.000405144 6.99995 1.54797e-07ZM6.99995 12C6.03306 12.0007 5.08314 11.746 4.2462 11.2619C4.18493 11.2263 4.1168 11.2042 4.04633 11.197C3.97586 11.1898 3.90466 11.1976 3.83745 11.22L1.49995 12L2.27933 9.6625C2.3018 9.59533 2.30974 9.52416 2.30262 9.45369C2.29551 9.38323 2.27351 9.31507 2.23808 9.25375C1.63181 8.20557 1.3884 6.98661 1.5456 5.78598C1.7028 4.58534 2.25182 3.47014 3.10751 2.61337C3.96319 1.7566 5.0777 1.20617 6.27814 1.04745C7.47858 0.888735 8.69784 1.13061 9.74679 1.73555C10.7957 2.3405 11.6157 3.27469 12.0796 4.39322C12.5434 5.51175 12.6251 6.75208 12.3121 7.92181C11.9991 9.09153 11.3088 10.1253 10.3483 10.8626C9.38781 11.6 8.21084 11.9998 6.99995 12Z" fill="#EFEAE7"/>
</svg>
